<svg width="47" height="26" viewBox="0 0 47 26" fill="none" xmlns="http://www.w3.org/2000/svg">
<path opacity="0.56" d="M39.8158 12.9861L34.6974 7.85705L37.2553 2.72974L45.5717 11.0635C46.6313 12.1254 46.6313 13.8469 45.5717 14.9088L35.3358 25.1661C34.2762 26.2279 32.5582 26.2279 31.4986 25.1661C30.439 24.1042 30.439 22.3826 31.4986 21.3208L39.8158 12.9861Z" fill="white"/>
<path d="M31.5005 0.796157C32.5602 -0.265683 34.2786 -0.265237 35.3382 0.796602L37.2573 2.71968L14.8678 25.156C13.8082 26.2178 12.0898 26.2174 11.0301 25.1556L9.11108 23.2325L31.5005 0.796157ZM21.9048 7.84788L18.0667 11.694L12.9483 6.56494L6.55056 12.9761L11.6689 18.1052L9.11108 23.2325L0.794716 14.8987C-0.264905 13.8369 -0.264905 12.1153 0.794716 11.0535L11.0301 0.796602C12.0898 -0.265237 13.8082 -0.265683 14.8678 0.796157L21.9048 7.84788Z" fill="white"/>
</svg>
